<svg width="10" height="6" viewBox="0 0 10 6" fill="none" xmlns="http://www.w3.org/2000/svg">
<path d="M4.57949 5.07636C4.42958 5.07931 4.28327 5.02376 4.16598 4.91936L0.253862 1.41751C0.120714 1.29864 0.0352731 1.12597 0.0163356 0.937497C-0.00260197 0.74902 0.0465149 0.560174 0.152881 0.412501C0.259247 0.264829 0.414149 0.170427 0.583511 0.150063C0.752873 0.129699 0.92282 0.185041 1.05597 0.303914L4.55096 3.44174L7.9363 0.298062C8.0009 0.237623 8.07564 0.192027 8.15624 0.163892C8.23684 0.135758 8.3217 0.125642 8.40595 0.134124C8.49019 0.142607 8.57216 0.16952 8.64715 0.213319C8.72213 0.257118 8.78865 0.316938 8.84288 0.389341C8.90292 0.46171 8.94893 0.547038 8.97802 0.639977C9.0071 0.732917 9.01865 0.831465 9.01192 0.929449C9.00519 1.02743 8.98035 1.12274 8.93893 1.2094C8.89752 1.29606 8.84043 1.37221 8.77124 1.43307L4.9816 4.94796C4.86441 5.03963 4.72283 5.08484 4.57949 5.07636Z" fill="#9A9A9A"/>
</svg>
