<svg width="26" height="26" viewBox="0 0 26 26" fill="none" xmlns="http://www.w3.org/2000/svg">
<circle cx="13" cy="13" r="12" fill="#ECECEC" stroke="white" stroke-width="2"/>
<path d="M10.0262 13.0156C10.0251 12.8824 10.082 12.753 10.187 12.65L13.7079 9.21221C13.8274 9.09521 13.9997 9.02114 14.1869 9.0063C14.3741 8.99146 14.5607 9.03707 14.7059 9.1331C14.851 9.22912 14.9428 9.36769 14.9609 9.51833C14.979 9.66896 14.922 9.81932 14.8025 9.93633L11.6477 13.0074L14.7239 16.0472C14.7831 16.1053 14.8274 16.1721 14.8543 16.244C14.8812 16.3159 14.8902 16.3914 14.8808 16.4661C14.8713 16.5408 14.8436 16.6133 14.7993 16.6795C14.7549 16.7456 14.6948 16.8041 14.6223 16.8515C14.5498 16.904 14.4646 16.944 14.3721 16.9689C14.2795 16.9937 14.1817 17.0029 14.0846 16.9959C13.9875 16.9889 13.8932 16.9658 13.8078 16.9282C13.7224 16.8905 13.6476 16.839 13.588 16.7769L10.1486 13.3741C10.0591 13.269 10.016 13.1428 10.0262 13.0156Z" fill="#A1A1A1"/>
</svg>
