<svg width="38" height="50" viewBox="0 0 38 50" fill="none" xmlns="http://www.w3.org/2000/svg">
<path d="M31.7763 0.443359L21.5825 14.1646H26.6343L38.0008 0.443359H31.7763Z" fill="#428BC1"/>
<path d="M26.6323 0.443359L16.5288 14.1646H21.5806L31.7743 0.443359H26.6323Z" fill="#E8E8E8"/>
<path d="M21.5801 0.443359L11.4766 14.1646H16.5283L26.6319 0.443359H21.5801Z" fill="#ED4C5C"/>
<path d="M19.0496 49.1575C29.3128 49.1575 37.6329 41.6694 37.6329 32.4323C37.6329 23.1952 29.3128 15.707 19.0496 15.707C8.78632 15.707 0.466309 23.1952 0.466309 32.4323C0.466309 41.6694 8.78632 49.1575 19.0496 49.1575Z" fill="#D3976E"/>
<path d="M9.75672 11.0791C9.30567 11.0791 8.94482 11.4039 8.94482 11.8098V18.6298C8.94482 19.0358 9.30567 19.3605 9.75672 19.3605H28.34C28.791 19.3605 29.1519 19.0358 29.1519 18.6298V11.8098C29.1519 11.4039 28.791 11.0791 28.34 11.0791H9.75672ZM27.5281 16.4377C27.5281 16.8436 27.1673 17.1684 26.7162 17.1684H11.4707C11.0197 17.1684 10.6588 16.8436 10.6588 16.4377V13.3524C10.6588 12.9465 11.0197 12.6217 11.4707 12.6217H26.7162C27.1673 12.6217 27.5281 12.9465 27.5281 13.3524V16.4377Z" fill="#D3976E"/>
<path opacity="0.5" d="M3.08423 34.3804C3.08423 25.287 10.8423 17.8987 20.7654 17.2492C20.3144 17.2492 19.7731 17.168 19.322 17.168C9.84998 17.168 2.18213 24.0692 2.18213 32.6754C2.18213 35.1923 2.90381 37.628 4.07654 39.7389C3.44507 38.0339 3.08423 36.2477 3.08423 34.3804Z" fill="#3E4347"/>
<path opacity="0.33" d="M26.1806 45.3413C34.5701 40.3075 37.096 30.4835 32.2246 22.8516L33.0365 23.8258C38.2687 30.8082 36.1037 40.3075 28.2554 45.0978C25.9099 46.5592 23.2938 47.3711 20.6777 47.6147C22.6624 47.1275 24.4666 46.3968 26.1806 45.3413Z" fill="white"/>
<path d="M11.4758 14.1646H16.5276L6.33387 0.443359H0.109375L11.4758 14.1646Z" fill="#ED4C5C"/>
<path d="M16.5272 14.1646H21.579L11.4755 0.443359H6.3335L16.5272 14.1646Z" fill="#E8E8E8"/>
<path opacity="0.5" d="M19.8667 2.7168L17.3408 6.1268L23.2947 14.1647H26.6325L27.5346 13.028L19.8667 2.7168Z" fill="#3E4347"/>
<path d="M21.5801 14.1646H26.6319L16.5283 0.443359H11.4766L21.5801 14.1646Z" fill="#428BC1"/>
<path opacity="0.5" d="M18.6018 24.395C16.7074 24.395 15.1738 25.7753 15.1738 27.3991H12.7382C12.7382 27.6427 12.6479 27.8862 12.6479 28.1298H16.0759C16.0759 26.4248 17.6095 25.0446 19.5039 25.0446C20.2256 25.0446 20.8571 25.2881 21.3983 25.6129C20.7669 24.9634 19.7745 24.395 18.6018 24.395ZM23.9242 32.7577C25.3676 31.621 26.2697 29.9972 26.2697 28.211C26.2697 26.3436 25.3676 24.6386 23.834 23.502C24.8263 24.5574 25.4578 25.9377 25.4578 27.3991C25.4578 29.1853 24.5557 30.8903 23.1123 31.9458C24.5557 33.0824 25.4578 34.7062 25.4578 36.4924C25.4578 39.8212 22.3906 42.5817 18.692 42.5817C17.0682 42.5817 15.5347 42.0134 14.3619 41.1203C15.6249 42.4193 17.4291 43.3124 19.5941 43.3124C23.2927 43.3124 26.3599 40.552 26.3599 37.2231C26.2697 35.5181 25.3676 33.8943 23.9242 32.7577Z" fill="#3E4347"/>
<path opacity="0.33" d="M19.5038 22.1213C21.1276 22.1213 22.6611 22.6897 23.8339 23.5828C22.5709 22.2837 20.7667 21.3906 18.6017 21.3906C14.9031 21.3906 11.8359 24.1511 11.8359 27.4799H12.738C13.1891 24.4759 15.9856 22.1213 19.5038 22.1213ZM22.8416 28.2106C22.8416 27.1552 22.3003 26.2621 21.3982 25.6937C21.759 26.1809 22.0297 26.7492 22.0297 27.3987C22.0297 29.1037 20.4961 30.484 18.6017 30.484V33.5692C18.8723 33.5692 19.143 33.6504 19.4136 33.6504V31.2959C21.308 31.2959 22.8416 29.9156 22.8416 28.2106ZM19.5038 40.3892C21.3982 40.3892 22.9318 39.009 22.9318 37.304C22.9318 36.2485 22.3905 35.3554 21.4884 34.7871C21.8493 35.2742 22.1199 35.8425 22.1199 36.4921C22.1199 38.1971 20.5863 39.5773 18.6919 39.5773C17.9702 39.5773 17.3388 39.3337 16.7975 39.009C17.3388 39.9021 18.3311 40.3892 19.5038 40.3892ZM15.3541 37.3852C15.2639 37.1416 15.2639 36.898 15.2639 36.6544H11.8359C11.8359 38.5218 12.738 40.2268 14.2716 41.3635C13.2793 40.308 12.6478 38.9278 12.6478 37.4663L15.3541 37.3852Z" fill="white"/>
</svg>
