<svg width="46" height="33" viewBox="0 0 46 33" fill="none" xmlns="http://www.w3.org/2000/svg">
<rect width="46" height="33" rx="5" fill="#E8E8E8"/>
<path d="M32 10.98C28.67 10.65 25.32 10.48 21.98 10.48C20 10.48 18.02 10.58 16.04 10.78L14 10.98M19.5 9.97L19.72 8.66C19.88 7.71 20 7 21.69 7H24.31C26 7 26.13 7.75 26.28 8.67L26.5 9.97M29.85 14.14L29.2 24.21C29.09 25.78 29 27 26.21 27H19.79C17 27 16.91 25.78 16.8 24.21L16.15 14.14M21.33 21.5H24.66M20.5 17.5H25.5" stroke="#C6C5C3" stroke-width="1.5" stroke-linecap="round" stroke-linejoin="round"/>
</svg>
