<svg width="46" height="33" viewBox="0 0 46 33" fill="none" xmlns="http://www.w3.org/2000/svg">
<rect width="46" height="33" rx="3" fill="#E3F0F8"/>
<path d="M27 9.02002C30.33 9.20002 32 10.43 32 15V21C32 25 31 27 26 27H20C15 27 14 25 14 21V15C14 10.44 15.67 9.20002 19 9.02002" fill="#95B8CE"/>
<path d="M27 9.02002C30.33 9.20002 32 10.43 32 15V21C32 25 31 27 26 27H20C15 27 14 25 14 21V15C14 10.44 15.67 9.20002 19 9.02002" stroke="white" stroke-width="1.5" stroke-miterlimit="10" stroke-linecap="round" stroke-linejoin="round"/>
<path d="M20.3101 18.7002L21.8101 20.2002L25.8101 16.2002" stroke="white" stroke-width="1.5" stroke-linecap="round" stroke-linejoin="round"/>
<path d="M21 11H25C27 11 27 10 27 9C27 7 26 7 25 7H21C20 7 19 7 19 9C19 11 20 11 21 11Z" fill="#95B8CE" stroke="white" stroke-width="1.5" stroke-miterlimit="10" stroke-linecap="round" stroke-linejoin="round"/>
</svg>
