<svg width="38" height="50" viewBox="0 0 38 50" fill="none" xmlns="http://www.w3.org/2000/svg">
<path d="M31.7763 0.77832L21.5825 14.4995H26.6343L38.0008 0.77832H31.7763Z" fill="#428BC1"/>
<path d="M26.6323 0.77832L16.5288 14.4995H21.5806L31.7743 0.77832H26.6323Z" fill="#E8E8E8"/>
<path d="M21.5801 0.77832L11.4766 14.4995H16.5283L26.6319 0.77832H21.5801Z" fill="#ED4C5C"/>
<path d="M19.0496 49.4925C29.3128 49.4925 37.6329 42.0043 37.6329 32.7672C37.6329 23.5301 29.3128 16.042 19.0496 16.042C8.78632 16.042 0.466309 23.5301 0.466309 32.7672C0.466309 42.0043 8.78632 49.4925 19.0496 49.4925Z" fill="#FFCE31"/>
<path d="M9.75672 11.4141C9.30567 11.4141 8.94482 11.7388 8.94482 12.1448V18.9648C8.94482 19.3707 9.30567 19.6955 9.75672 19.6955H28.34C28.791 19.6955 29.1519 19.3707 29.1519 18.9648V12.1448C29.1519 11.7388 28.791 11.4141 28.34 11.4141H9.75672ZM27.5281 16.7726C27.5281 17.1786 27.1673 17.5033 26.7162 17.5033H11.4707C11.0197 17.5033 10.6588 17.1786 10.6588 16.7726V13.6874C10.6588 13.2814 11.0197 12.9567 11.4707 12.9567H26.7162C27.1673 12.9567 27.5281 13.2814 27.5281 13.6874V16.7726Z" fill="#FFCE31"/>
<path opacity="0.5" d="M3.08423 34.7163C3.08423 25.623 10.8423 18.2346 20.7654 17.5851C20.3144 17.5851 19.7731 17.5039 19.322 17.5039C9.84998 17.5039 2.18213 24.4051 2.18213 33.0113C2.18213 35.5282 2.90381 37.9639 4.07654 40.0749C3.44507 38.3699 3.08423 36.5837 3.08423 34.7163Z" fill="#89664C"/>
<path opacity="0.33" d="M26.1806 45.6773C34.5701 40.6435 37.096 30.8194 32.2246 23.1875L33.0365 24.1618C38.2687 31.1442 36.1037 40.6435 28.2554 45.4337C25.9099 46.8951 23.2938 47.707 20.6777 47.9506C22.6624 47.4635 24.4666 46.7327 26.1806 45.6773Z" fill="white"/>
<path d="M11.4758 14.4995H16.5276L6.33387 0.77832H0.109375L11.4758 14.4995Z" fill="#ED4C5C"/>
<path d="M16.5272 14.4995H21.579L11.4755 0.77832H6.3335L16.5272 14.4995Z" fill="#E8E8E8"/>
<path opacity="0.5" d="M19.8667 3.05176L17.3408 6.46176L23.2947 14.4996H26.6325L27.5346 13.363L19.8667 3.05176Z" fill="#3E4347"/>
<path d="M21.5801 14.4995H26.6319L16.5283 0.77832H11.4766L21.5801 14.4995Z" fill="#428BC1"/>
<path opacity="0.5" d="M14.3647 27.7334V28.5453C15.2668 28.5453 16.0787 28.383 16.8906 28.0582V26.9215C16.1689 27.4087 15.3571 27.6522 14.3647 27.7334ZM20.3186 22.4561H21.1305V39.9932H20.3186V22.4561ZM23.7466 40.7239V42.9972H14.3647V43.8092H24.5585V40.7239H23.7466Z" fill="#89664C"/>
<path opacity="0.33" d="M21.1298 39.9934H23.6557V40.7242H21.1298V39.9934ZM17.792 22.4563H20.3179V21.7256H16.8899C16.8899 23.4306 15.3563 24.8108 13.4619 24.8108V27.8149C13.7325 27.8149 14.0032 27.8149 14.2738 27.7337V25.4604C16.2584 25.5415 17.792 24.1613 17.792 22.4563ZM17.792 40.7242V27.7337C17.5214 27.8961 17.2507 27.9773 16.9801 28.1396V39.9934H13.5521V42.9975H14.364V40.7242H17.792Z" fill="white"/>
</svg>
