<svg width="19" height="19" viewBox="0 0 19 19" fill="none" xmlns="http://www.w3.org/2000/svg">
<path fill-rule="evenodd" clip-rule="evenodd" d="M8.27419 1.83871C4.71997 1.83871 1.83871 4.71997 1.83871 8.27419C1.83871 11.8284 4.71997 14.7097 8.27419 14.7097C11.8284 14.7097 14.7097 11.8284 14.7097 8.27419C14.7097 4.71997 11.8284 1.83871 8.27419 1.83871ZM0 8.27419C0 3.70448 3.70448 0 8.27419 0C12.8439 0 16.5484 3.70448 16.5484 8.27419C16.5484 12.8439 12.8439 16.5484 8.27419 16.5484C3.70448 16.5484 0 12.8439 0 8.27419Z" fill="#716F6F"/>
<path fill-rule="evenodd" clip-rule="evenodd" d="M13.1538 13.1538C13.5307 12.7769 14.1419 12.7769 14.5188 13.1538L18.7174 17.3524C19.0944 17.7294 19.0944 18.3405 18.7174 18.7174C18.3405 19.0944 17.7294 19.0944 17.3524 18.7174L13.1538 14.5188C12.7769 14.1419 12.7769 13.5307 13.1538 13.1538Z" fill="#716F6F"/>
</svg>
