<svg width="21" height="30" viewBox="0 0 21 30" fill="none" xmlns="http://www.w3.org/2000/svg">
<path d="M17.2957 0L11.7275 8.32767H14.487L20.6958 0H17.2957Z" fill="#428BC1"/>
<path d="M14.4867 0L8.96777 8.32767H11.7272L17.2954 0H14.4867Z" fill="#E8E8E8"/>
<path d="M11.7279 0L6.20898 8.32767H8.96845L14.4874 0H11.7279Z" fill="#ED4C5C"/>
<path d="M10.3482 29.5662C15.9543 29.5662 20.499 25.0215 20.499 19.4153C20.499 13.8091 15.9543 9.2644 10.3482 9.2644C4.74197 9.2644 0.197266 13.8091 0.197266 19.4153C0.197266 25.0215 4.74197 29.5662 10.3482 29.5662Z" fill="#D3976E"/>
<path d="M5.27259 6.45532C5.02621 6.45532 4.8291 6.65243 4.8291 6.89881V11.038C4.8291 11.2844 5.02621 11.4815 5.27259 11.4815H15.4235C15.6699 11.4815 15.867 11.2844 15.867 11.038V6.89881C15.867 6.65243 15.6699 6.45532 15.4235 6.45532H5.27259ZM14.98 9.70755C14.98 9.95393 14.7829 10.151 14.5365 10.151H6.20883C5.96245 10.151 5.76535 9.95393 5.76535 9.70755V7.83505C5.76535 7.58867 5.96245 7.39157 6.20883 7.39157H14.5365C14.7829 7.39157 14.98 7.58867 14.98 7.83505V9.70755Z" fill="#D3976E"/>
<path opacity="0.5" d="M1.62557 20.5977C1.62557 15.0787 5.86332 10.5946 11.2837 10.2004C11.0373 10.2004 10.7417 10.1511 10.4953 10.1511C5.32129 10.1511 1.13281 14.3396 1.13281 19.5629C1.13281 21.0904 1.52702 22.5687 2.16761 23.8499C1.82268 22.8151 1.62557 21.731 1.62557 20.5977Z" fill="#3E4347"/>
<path opacity="0.33" d="M14.2412 27.2497C18.8239 24.1946 20.2036 18.2322 17.5427 13.6002L17.9862 14.1915C20.8442 18.4293 19.6616 24.1946 15.3745 27.1019C14.0934 27.9889 12.6644 28.4816 11.2354 28.6294C12.3194 28.3338 13.305 27.8903 14.2412 27.2497Z" fill="white"/>
<path d="M6.20879 8.32767H8.96826L3.40005 0H0L6.20879 8.32767Z" fill="#ED4C5C"/>
<path d="M8.96762 8.32767H11.7271L6.20815 0H3.39941L8.96762 8.32767Z" fill="#E8E8E8"/>
<path opacity="0.5" d="M10.7909 1.37976L9.41113 3.44936L12.6634 8.3277H14.4866L14.9793 7.63783L10.7909 1.37976Z" fill="#3E4347"/>
<path d="M11.7279 8.32767H14.4874L8.96845 0H6.20898L11.7279 8.32767Z" fill="#428BC1"/>
<path opacity="0.5" d="M10.1009 14.5365C9.06606 14.5365 8.22837 15.3742 8.22837 16.3598H6.89791C6.89791 16.5076 6.84863 16.6554 6.84863 16.8032H8.72113C8.72113 15.7684 9.55882 14.9308 10.5936 14.9308C10.9878 14.9308 11.3328 15.0786 11.6284 15.2757C11.2835 14.8815 10.7414 14.5365 10.1009 14.5365ZM13.0082 19.612C13.7966 18.9221 14.2893 17.9366 14.2893 16.8525C14.2893 15.7192 13.7966 14.6844 12.9589 13.9945C13.5009 14.6351 13.8458 15.4728 13.8458 16.3598C13.8458 17.4438 13.3531 18.4786 12.5647 19.1192C13.3531 19.8091 13.8458 20.7946 13.8458 21.8787C13.8458 23.899 12.1705 25.5744 10.1501 25.5744C9.26316 25.5744 8.42547 25.2295 7.78488 24.6874C8.47475 25.4758 9.46027 26.0179 10.6429 26.0179C12.6632 26.0179 14.3386 24.3425 14.3386 22.3222C14.2893 21.2874 13.7966 20.3019 13.0082 19.612Z" fill="#3E4347"/>
<path opacity="0.33" d="M10.5937 13.1569C11.4807 13.1569 12.3184 13.5018 12.959 14.0438C12.2691 13.2554 11.2836 12.7134 10.101 12.7134C8.08066 12.7134 6.40527 14.3888 6.40527 16.4091H6.89803C7.14442 14.5859 8.67198 13.1569 10.5937 13.1569ZM12.417 16.8526C12.417 16.212 12.1213 15.6699 11.6285 15.325C11.8256 15.6207 11.9735 15.9656 11.9735 16.3598C11.9735 17.3946 11.1358 18.2323 10.101 18.2323V20.1048C10.2488 20.1048 10.3966 20.1541 10.5445 20.1541V18.7251C11.5793 18.7251 12.417 17.8874 12.417 16.8526ZM10.5937 24.244C11.6285 24.244 12.4662 23.4063 12.4662 22.3715C12.4662 21.7309 12.1706 21.1889 11.6778 20.8439C11.8749 21.1396 12.0228 21.4845 12.0228 21.8787C12.0228 22.9135 11.1851 23.7512 10.1503 23.7512C9.75605 23.7512 9.41112 23.6034 9.11546 23.4063C9.41112 23.9483 9.95316 24.244 10.5937 24.244ZM8.32704 22.4208C8.27777 22.273 8.27777 22.1251 8.27777 21.9773H6.40527C6.40527 23.1106 6.89804 24.1454 7.73573 24.8353C7.19369 24.1947 6.84876 23.357 6.84876 22.4701L8.32704 22.4208Z" fill="white"/>
</svg>
