<svg width="46" height="33" viewBox="0 0 46 33" fill="none" xmlns="http://www.w3.org/2000/svg">
<rect width="46" height="33" rx="3" fill="#FAFAFA"/>
<path d="M32 11.582C28.67 11.285 25.32 11.132 21.98 11.132C20 11.132 18.02 11.222 16.04 11.402L14 11.582M19.5 10.673L19.72 9.494C19.88 8.639 20 8 21.69 8H24.31C26 8 26.13 8.675 26.28 9.503L26.5 10.673M29.85 14.426L29.2 23.489C29.09 24.902 29 26 26.21 26H19.79C17 26 16.91 24.902 16.8 23.489L16.15 14.426M21.33 21.05H24.66M20.5 17.45H25.5" stroke="#C6C5C3" stroke-width="1.5" stroke-linecap="round" stroke-linejoin="round"/>
</svg>
