<svg width="70" height="71" viewBox="0 0 70 71" fill="none" xmlns="http://www.w3.org/2000/svg">
<g opacity="0.6">
<path d="M25.0267 29C26.7715 29 28.4449 28.2888 29.6787 27.023C30.9125 25.7571 31.6056 24.0402 31.6056 22.25C31.6056 20.4598 30.9125 18.7429 29.6787 17.477C28.4449 16.2112 26.7715 15.5 25.0267 15.5C23.2819 15.5 21.6085 16.2112 20.3747 17.477C19.1409 18.7429 18.4478 20.4598 18.4478 22.25C18.4478 24.0402 19.1409 25.7571 20.3747 27.023C21.6085 28.2888 23.2819 29 25.0267 29Z" stroke="#9A9A9A" stroke-width="3" stroke-linecap="round" stroke-linejoin="round"/>
<path d="M38.1842 2H25.0263C8.57895 2 2 8.75 2 25.625V45.875C2 62.75 8.57895 69.5 25.0263 69.5H44.7632C61.2105 69.5 67.7895 62.75 67.7895 45.875V29" stroke="#9A9A9A" stroke-width="3" stroke-linecap="round" stroke-linejoin="round"/>
<path d="M4.2041 59.2064L20.4212 48.0351C23.0199 46.2464 26.7699 46.4489 29.1054 48.5076L30.1909 49.4864C32.7567 51.7476 36.9015 51.7476 39.4673 49.4864L53.1515 37.4376C55.7173 35.1764 59.862 35.1764 62.4278 37.4376L67.7896 42.1626" stroke="#9A9A9A" stroke-width="3" stroke-linecap="round" stroke-linejoin="round"/>
<path d="M58.5304 22.5L58.5304 2.25M58.5304 2.25L51.9515 9M58.5304 2.25L65.1094 9" stroke="#9A9A9A" stroke-width="3" stroke-linecap="round" stroke-linejoin="round"/>
</g>
</svg>
