<svg width="21" height="30" viewBox="0 0 21 30" fill="none" xmlns="http://www.w3.org/2000/svg">
<path d="M17.2967 0.00012207L11.7285 8.32779H14.488L20.6968 0.00012207H17.2967Z" fill="#428BC1"/>
<path d="M14.4877 0.00012207L8.96875 8.32779H11.7282L17.2964 0.00012207H14.4877Z" fill="#E8E8E8"/>
<path d="M11.7279 0.00012207L6.20898 8.32779H8.96845L14.4874 0.00012207H11.7279Z" fill="#ED4C5C"/>
<path d="M10.3482 29.5659C15.9543 29.5659 20.499 25.0212 20.499 19.415C20.499 13.8089 15.9543 9.26416 10.3482 9.26416C4.74197 9.26416 0.197266 13.8089 0.197266 19.415C0.197266 25.0212 4.74197 29.5659 10.3482 29.5659Z" fill="#FFCE31"/>
<path d="M5.27259 6.45557C5.02621 6.45557 4.8291 6.65267 4.8291 6.89905V11.0382C4.8291 11.2846 5.02621 11.4817 5.27259 11.4817H15.4235C15.6699 11.4817 15.867 11.2846 15.867 11.0382V6.89905C15.867 6.65267 15.6699 6.45557 15.4235 6.45557H5.27259ZM14.98 9.70779C14.98 9.95417 14.7829 10.1513 14.5365 10.1513H6.20883C5.96245 10.1513 5.76535 9.95417 5.76535 9.70779V7.8353C5.76535 7.58892 5.96245 7.39181 6.20883 7.39181H14.5365C14.7829 7.39181 14.98 7.58892 14.98 7.8353V9.70779Z" fill="#FFCE31"/>
<path opacity="0.5" d="M1.62655 20.5975C1.62655 15.0786 5.8643 10.5945 11.2847 10.2003C11.0383 10.2003 10.7426 10.151 10.4963 10.151C5.32226 10.151 1.13379 14.3395 1.13379 19.5627C1.13379 21.0903 1.528 22.5686 2.16859 23.8498C1.82365 22.815 1.62655 21.7309 1.62655 20.5975Z" fill="#89664C"/>
<path opacity="0.33" d="M14.2422 27.2502C18.8249 24.1951 20.2046 18.2327 17.5437 13.6007L17.9872 14.192C20.8452 18.4298 19.6625 24.1951 15.3755 27.1024C14.0943 27.9893 12.6653 28.4821 11.2363 28.6299C12.3204 28.3343 13.3059 27.8908 14.2422 27.2502Z" fill="white"/>
<path d="M6.20879 8.32767H8.96826L3.40005 0H0L6.20879 8.32767Z" fill="#ED4C5C"/>
<path d="M8.9686 8.32779H11.7281L6.20913 0.00012207H3.40039L8.9686 8.32779Z" fill="#E8E8E8"/>
<path opacity="0.5" d="M10.7918 1.38013L9.41211 3.44972L12.6643 8.32806H14.4876L14.9803 7.6382L10.7918 1.38013Z" fill="#3E4347"/>
<path d="M11.7279 8.32779H14.4874L8.96845 0.00012207H6.20898L11.7279 8.32779Z" fill="#428BC1"/>
<path opacity="0.5" d="M7.78613 16.3601V16.8528C8.27889 16.8528 8.72238 16.7543 9.16587 16.5572V15.8673C8.77166 16.1629 8.32817 16.3108 7.78613 16.3601ZM11.0384 13.1571H11.4818V23.8008H11.0384V13.1571ZM12.9109 24.2442V25.624H7.78613V26.1167H13.3543V24.2442H12.9109Z" fill="#89664C"/>
<path opacity="0.33" d="M11.4814 23.8006H12.8612V24.2441H11.4814V23.8006ZM9.65822 13.157H11.038V12.7135H9.16546C9.16546 13.7483 8.32777 14.586 7.29297 14.586V16.4092C7.4408 16.4092 7.58863 16.4092 7.73645 16.3599V14.9802C8.82053 15.0295 9.65822 14.1918 9.65822 13.157ZM9.65822 24.2441V16.3599C9.5104 16.4585 9.36257 16.5078 9.21474 16.6063V23.8006H7.34225V25.6239H7.78573V24.2441H9.65822Z" fill="white"/>
</svg>
