<svg width="22" height="22" viewBox="0 0 22 22" fill="none" xmlns="http://www.w3.org/2000/svg">
<path d="M21 7V12C21 16 19 18 15 18H14.5C14.19 18 13.89 18.15 13.7 18.4L12.2 20.4C11.54 21.28 10.46 21.28 9.8 20.4L8.3 18.4C8.14 18.18 7.77 18 7.5 18H7C3 18 1 17 1 12V7C1 3 3 1 7 1H11" stroke="white" stroke-width="1.5" stroke-miterlimit="10" stroke-linecap="round" stroke-linejoin="round"/>
<path d="M14.2002 3.61959C13.8702 2.62959 14.2602 1.40959 15.3402 1.06959C15.9002 0.899592 16.6002 1.03959 17.0002 1.56959C17.3802 1.01959 18.1002 0.899592 18.6602 1.06959C19.7402 1.39959 20.1302 2.62959 19.8002 3.61959C19.2902 5.18959 17.5002 5.99959 17.0002 5.99959C16.5002 5.99959 14.7302 5.19959 14.2002 3.61959Z" stroke="white" stroke-width="1.5" stroke-linecap="round" stroke-linejoin="round"/>
<path d="M14.9961 10H15.0061M10.9951 10H11.0051M6.99512 10H7.00312" stroke="white" stroke-width="2" stroke-linecap="round" stroke-linejoin="round"/>
</svg>
