<svg width="21" height="30" viewBox="0 0 21 30" fill="none" xmlns="http://www.w3.org/2000/svg">
<path d="M17.2957 0.00012207L11.7275 8.32779H14.487L20.6958 0.00012207H17.2957Z" fill="#428BC1"/>
<path d="M14.4867 0.00012207L8.96777 8.32779H11.7272L17.2954 0.00012207H14.4867Z" fill="#E8E8E8"/>
<path d="M11.7279 0.00012207L6.20898 8.32779H8.96845L14.4874 0.00012207H11.7279Z" fill="#ED4C5C"/>
<path d="M10.3482 29.5659C15.9543 29.5659 20.499 25.0212 20.499 19.415C20.499 13.8089 15.9543 9.26416 10.3482 9.26416C4.74197 9.26416 0.197266 13.8089 0.197266 19.415C0.197266 25.0212 4.74197 29.5659 10.3482 29.5659Z" fill="#B2C1C0"/>
<path d="M5.27259 6.45557C5.02621 6.45557 4.8291 6.65267 4.8291 6.89905V11.0382C4.8291 11.2846 5.02621 11.4817 5.27259 11.4817H15.4235C15.6699 11.4817 15.867 11.2846 15.867 11.0382V6.89905C15.867 6.65267 15.6699 6.45557 15.4235 6.45557H5.27259ZM14.98 9.70779C14.98 9.95417 14.7829 10.1513 14.5365 10.1513H6.20883C5.96245 10.1513 5.76535 9.95417 5.76535 9.70779V7.8353C5.76535 7.58892 5.96245 7.39181 6.20883 7.39181H14.5365C14.7829 7.39181 14.98 7.58892 14.98 7.8353V9.70779Z" fill="#B2C1C0"/>
<path opacity="0.5" d="M1.62557 20.5975C1.62557 15.0786 5.86332 10.5945 11.2837 10.2003C11.0373 10.2003 10.7417 10.151 10.4953 10.151C5.32129 10.151 1.13281 14.3395 1.13281 19.5627C1.13281 21.0903 1.52702 22.5686 2.16761 23.8498C1.82268 22.815 1.62557 21.7309 1.62557 20.5975Z" fill="#3E4347"/>
<path opacity="0.33" d="M14.2412 27.2501C18.8239 24.195 20.2036 18.2325 17.5427 13.6006C17.6905 13.7977 17.8384 13.9948 17.9862 14.2412C20.8442 18.4789 19.6616 24.2442 15.3745 27.1515C14.0934 28.0385 12.6644 28.5313 11.2354 28.6791C12.3194 28.3342 13.305 27.8907 14.2412 27.2501Z" fill="white"/>
<path d="M6.20879 8.32767H8.96826L3.40005 0H0L6.20879 8.32767Z" fill="#ED4C5C"/>
<path d="M8.96762 8.32779H11.7271L6.20815 0.00012207H3.39941L8.96762 8.32779Z" fill="#E8E8E8"/>
<path opacity="0.5" d="M10.7909 1.38013L9.41113 3.44972L12.6634 8.32806H14.4866L14.9793 7.6382L10.7909 1.38013Z" fill="#3E4347"/>
<path d="M11.7279 8.32779H14.4874L8.96845 0.00012207H6.20898L11.7279 8.32779Z" fill="#428BC1"/>
<path opacity="0.5" d="M10.1009 14.5367C9.06606 14.5367 8.22837 15.3744 8.22837 16.3599H6.89791C6.89791 16.5078 6.84863 16.6556 6.84863 16.8034H8.72113C8.72113 15.7686 9.55882 14.9309 10.5936 14.9309C10.9878 14.9309 11.3328 15.0787 11.6284 15.2758C11.2835 14.8816 10.7414 14.5367 10.1009 14.5367ZM13.7966 25.6238H6.89791V26.1166H14.2893V24.2441H13.7966V25.6238ZM10.1009 20.1049C9.06606 20.1049 8.22837 20.9426 8.22837 21.9774V23.8499H8.67185V22.4702C8.67185 21.4354 9.50955 20.5977 10.5443 20.5977C12.5647 20.5977 14.2401 18.9223 14.2401 16.902C14.2401 15.7686 13.7473 14.7338 12.9096 14.0439C13.4516 14.6845 13.7966 15.5222 13.7966 16.4092C13.7966 18.4295 12.1705 20.1049 10.1009 20.1049Z" fill="#3E4347"/>
<path opacity="0.33" d="M8.72125 23.8006H13.7967V24.2441H8.72125V23.8006ZM10.5937 18.7252C11.6285 18.7252 12.4662 17.8875 12.4662 16.8527C12.4662 16.2121 12.1706 15.6701 11.6778 15.3251C11.8749 15.6208 12.0228 15.9657 12.0228 16.3599C12.0228 17.3947 11.1851 18.2324 10.1503 18.2324C8.12994 18.2324 6.45455 19.9078 6.45455 21.9281V25.6239H6.89803V22.3716C6.89803 20.3513 8.52415 18.7252 10.5937 18.7252ZM10.5937 13.157C11.4807 13.157 12.3184 13.5019 12.959 14.044C12.2691 13.2555 11.2836 12.7135 10.101 12.7135C8.08066 12.7135 6.40527 14.3889 6.40527 16.4092H6.89803C7.14442 14.586 8.67198 13.157 10.5937 13.157Z" fill="white"/>
</svg>
