<svg width="38" height="49" viewBox="0 0 38 49" fill="none" xmlns="http://www.w3.org/2000/svg">
<path d="M31.7763 0.1875L21.5825 13.9087H26.6343L38.0008 0.1875H31.7763Z" fill="#428BC1"/>
<path d="M26.6323 0.1875L16.5288 13.9087H21.5806L31.7743 0.1875H26.6323Z" fill="#E8E8E8"/>
<path d="M21.5801 0.1875L11.4766 13.9087H16.5283L26.6319 0.1875H21.5801Z" fill="#ED4C5C"/>
<path d="M19.053 48.9026C29.3163 48.9026 37.6363 41.4145 37.6363 32.1774C37.6363 22.9403 29.3163 15.4521 19.053 15.4521C8.78974 15.4521 0.469727 22.9403 0.469727 32.1774C0.469727 41.4145 8.78974 48.9026 19.053 48.9026Z" fill="#B2C1C0"/>
<path d="M9.76013 10.8242C9.30908 10.8242 8.94824 11.149 8.94824 11.5549V18.3749C8.94824 18.7809 9.30908 19.1056 9.76013 19.1056H28.3434C28.7945 19.1056 29.1553 18.7809 29.1553 18.3749V11.5549C29.1553 11.149 28.7945 10.8242 28.3434 10.8242H9.76013ZM27.5315 16.1828C27.5315 16.5887 27.1707 16.9135 26.7196 16.9135H11.4741C11.0231 16.9135 10.6622 16.5887 10.6622 16.1828V13.0976C10.6622 12.6916 11.0231 12.3668 11.4741 12.3668H26.7196C27.1707 12.3668 27.5315 12.6916 27.5315 13.0976V16.1828Z" fill="#B2C1C0"/>
<path opacity="0.5" d="M3.08423 34.1245C3.08423 25.0312 10.8423 17.6428 20.7654 16.9933C20.3144 16.9933 19.7731 16.9121 19.322 16.9121C9.84998 16.9121 2.18213 23.8133 2.18213 32.4195C2.18213 34.9364 2.90381 37.3721 4.07654 39.4831C3.44507 37.7781 3.08423 35.9919 3.08423 34.1245Z" fill="#3E4347"/>
<path opacity="0.33" d="M26.1806 45.0864C34.5701 40.0526 37.096 30.2286 32.2246 22.5967C32.4953 22.9214 32.7659 23.2462 33.0365 23.6522C38.2687 30.6345 36.1037 40.1338 28.2554 44.9241C25.9099 46.3855 23.2938 47.1974 20.6777 47.441C22.6624 46.8726 24.4666 46.1419 26.1806 45.0864Z" fill="white"/>
<path d="M11.4758 13.9087H16.5276L6.33387 0.1875H0.109375L11.4758 13.9087Z" fill="#ED4C5C"/>
<path d="M16.5272 13.9087H21.579L11.4755 0.1875H6.3335L16.5272 13.9087Z" fill="#E8E8E8"/>
<path opacity="0.5" d="M19.8667 2.46094L17.3408 5.87094L23.2947 13.9088H26.6325L27.5346 12.7721L19.8667 2.46094Z" fill="#3E4347"/>
<path d="M21.5801 13.9087H26.6319L16.5283 0.1875H11.4766L21.5801 13.9087Z" fill="#428BC1"/>
<path opacity="0.5" d="M18.6018 24.1381C16.7074 24.1381 15.1738 25.5183 15.1738 27.1421H12.7382C12.7382 27.3857 12.6479 27.6293 12.6479 27.8728H16.0759C16.0759 26.1678 17.6095 24.7876 19.5039 24.7876C20.2256 24.7876 20.8571 25.0312 21.3983 25.3559C20.7669 24.7064 19.7745 24.1381 18.6018 24.1381ZM25.3676 42.4059H12.7382V43.2178H26.2697V40.1326H25.3676V42.4059ZM18.6018 33.3126C16.7074 33.3126 15.1738 34.6928 15.1738 36.3978V39.4831H15.9857V37.2097C15.9857 35.5047 17.5193 34.1245 19.4137 34.1245C23.1123 34.1245 26.1795 31.364 26.1795 28.0352C26.1795 26.1678 25.2774 24.4628 23.7438 23.3262C24.7361 24.3816 25.3676 25.7619 25.3676 27.2233C25.3676 30.5521 22.3906 33.3126 18.6018 33.3126Z" fill="#3E4347"/>
<path opacity="0.33" d="M16.0758 39.4026H25.3674V40.1333H16.0758V39.4026ZM19.5038 31.04C21.3982 31.04 22.9318 29.6598 22.9318 27.9548C22.9318 26.8993 22.3905 26.0062 21.4884 25.4379C21.8493 25.925 22.1199 26.4933 22.1199 27.1429C22.1199 28.8479 20.5863 30.2281 18.6919 30.2281C14.9933 30.2281 11.9261 32.9886 11.9261 36.3174V42.4067H12.738V37.0481C12.738 33.7193 15.715 31.04 19.5038 31.04ZM19.5038 21.8655C21.1276 21.8655 22.6611 22.4338 23.8339 23.3269C22.5709 22.0279 20.7667 21.1348 18.6017 21.1348C14.9031 21.1348 11.8359 23.8952 11.8359 27.2241H12.738C13.1891 24.22 15.9856 21.8655 19.5038 21.8655Z" fill="white"/>
</svg>
