<svg width="30" height="32" viewBox="0 0 30 32" fill="none" xmlns="http://www.w3.org/2000/svg">
<path d="M15.0002 15.9998C16.6578 15.9998 18.2475 15.2975 19.4196 14.0472C20.5917 12.797 21.2502 11.1013 21.2502 9.33317C21.2502 7.56506 20.5917 5.86937 19.4196 4.61913C18.2475 3.36888 16.6578 2.6665 15.0002 2.6665C13.3426 2.6665 11.7529 3.36888 10.5808 4.61913C9.40868 5.86937 8.7502 7.56506 8.7502 9.33317C8.7502 11.1013 9.40868 12.797 10.5808 14.0472C11.7529 15.2975 13.3426 15.9998 15.0002 15.9998ZM15.0002 19.3332C8.7377 19.3332 3.6377 23.8132 3.6377 29.3332C3.6377 29.7065 3.9127 29.9998 4.2627 29.9998H25.7377C26.0877 29.9998 26.3627 29.7065 26.3627 29.3332C26.3627 23.8132 21.2627 19.3332 15.0002 19.3332Z" fill="white"/>
</svg>
