<svg width="22" height="22" viewBox="0 0 22 22" fill="none" xmlns="http://www.w3.org/2000/svg">
<path fill-rule="evenodd" clip-rule="evenodd" d="M4.79487 12.4103C9.38554 12.4103 9.58974 13.9672 9.58974 17.2051C9.58974 18.8275 9.58974 19.9816 8.90831 20.8267C8.12421 21.8003 6.69703 22 4.79487 22C2.89272 22 1.46554 21.8003 0.681436 20.8267C0 19.9816 0 18.8286 0 17.2333L0.846154 17.2051H0C0 13.9672 0.204205 12.4103 4.79487 12.4103ZM17.2051 12.4103C21.7958 12.4103 22 13.9672 22 17.2051C22 18.8275 22 19.9816 21.3186 20.8267C20.5345 21.8003 19.1073 22 17.2051 22C15.303 22 13.8758 21.8003 13.0917 20.8267C12.4103 19.9816 12.4103 18.8286 12.4103 17.2333L13.2564 17.2051H12.4103C12.4103 13.9672 12.6145 12.4103 17.2051 12.4103ZM5.02746 14.1031L4.79487 14.1026C1.85141 14.1026 1.70047 14.3138 1.69273 16.7844L1.6932 17.7469C1.69855 18.7295 1.73599 19.4393 1.99805 19.7662C2.29703 20.1362 3.18492 20.3077 4.79487 20.3077C6.40482 20.3077 7.29272 20.1351 7.59169 19.765C7.89744 19.3848 7.89744 18.4823 7.89744 17.2322C7.89744 14.4115 7.89744 14.1163 5.02746 14.1031ZM17.4377 14.1031L17.2051 14.1026C14.2617 14.1026 14.1107 14.3138 14.103 16.7844L14.1035 17.7469C14.1088 18.7295 14.1462 19.4393 14.4083 19.7662C14.7073 20.1362 15.5952 20.3077 17.2051 20.3077C18.8151 20.3077 19.703 20.1351 20.0019 19.765C20.3077 19.3848 20.3077 18.4823 20.3077 17.2322C20.3077 14.4115 20.3077 14.1163 17.4377 14.1031ZM4.79487 0C9.38554 0 9.58974 1.55692 9.58974 4.79487C9.58974 6.41723 9.58974 7.57138 8.90831 8.41641C8.12421 9.39005 6.69703 9.58974 4.79487 9.58974C2.89272 9.58974 1.46554 9.39005 0.681436 8.41641C0 7.57138 0 6.41836 0 4.82308L0.846154 4.79487H0C0 1.55692 0.204205 0 4.79487 0ZM17.2051 0C21.7958 0 22 1.55692 22 4.79487C22 6.41723 22 7.57138 21.3186 8.41641C20.5345 9.39005 19.1073 9.58974 17.2051 9.58974C15.303 9.58974 13.8758 9.39005 13.0917 8.41641C12.4103 7.57138 12.4103 6.41836 12.4103 4.82308L13.2564 4.79487H12.4103C12.4103 1.55692 12.6145 0 17.2051 0ZM5.02746 1.69281L4.79487 1.69231C1.85141 1.69231 1.70047 1.90352 1.69273 4.37411L1.6932 5.33661C1.69855 6.31924 1.73599 7.02904 1.99805 7.3559C2.29703 7.72595 3.18492 7.89744 4.79487 7.89744C6.40482 7.89744 7.29272 7.72482 7.59169 7.35477C7.89744 6.97456 7.89744 6.072 7.89744 4.82195C7.89744 2.0012 7.89744 1.70609 5.02746 1.69281ZM17.4377 1.69281L17.2051 1.69231C14.2617 1.69231 14.1107 1.90352 14.103 4.37411L14.1035 5.33661C14.1088 6.31924 14.1462 7.02904 14.4083 7.3559C14.7073 7.72595 15.5952 7.89744 17.2051 7.89744C18.8151 7.89744 19.703 7.72482 20.0019 7.35477C20.3077 6.97456 20.3077 6.072 20.3077 4.82195C20.3077 2.0012 20.3077 1.70609 17.4377 1.69281Z" fill="#4D74F9"/>
</svg>
