<svg width="209" height="209" viewBox="0 0 209 209" fill="none" xmlns="http://www.w3.org/2000/svg">
<path d="M141.404 40.4083C126.955 32.0778 110.109 28.8906 93.6157 31.3669C77.1221 33.8432 61.9549 41.8368 50.5893 54.0431C39.2238 66.2494 32.3311 81.9475 31.0361 98.5756C29.7411 115.204 34.1204 131.78 43.4591 145.598C52.7979 159.417 66.5447 169.662 82.456 174.662C98.3673 179.662 115.503 179.122 131.068 173.129C146.632 167.135 159.706 156.044 168.155 141.664C176.604 127.284 179.929 110.465 177.589 93.9514L104.566 104.302L141.404 40.4083Z" fill="#D8D8D8"/>
<path d="M178 104.104C178 88.328 172.924 72.9708 163.523 60.3024C154.121 47.6339 140.893 38.3265 125.794 33.756L104.5 104.104H178Z" fill="#4D74F9"/>
<path d="M124.529 90.6038H134.695V87.7148H128.982L131.958 84.7389C133.391 83.3053 134.456 81.7196 134.456 79.8733C134.456 76.8323 132.044 75.0945 129.438 75.0945C127.374 75.0945 125.398 76.1372 124.42 78.3093L126.94 79.7864C127.44 78.7003 128.308 78.0052 129.481 78.0052C130.633 78.0052 131.458 78.7655 131.458 79.9819C131.458 81.0028 130.698 82.002 129.72 83.0229L124.529 88.3664V90.6038ZM142.938 81.5676L145.783 77.8749V75.3986H136.226V78.2007H142.177L139.18 82.1106L140.331 83.8483H140.983C142.547 83.8483 143.415 84.6955 143.415 85.9119C143.415 87.15 142.547 87.9754 140.983 87.9754C139.549 87.9754 138.702 87.3455 138.333 86.216L135.769 87.6931C136.638 89.8652 138.702 90.9079 140.983 90.9079C143.85 90.9079 146.413 89.1701 146.413 85.9119C146.413 83.6746 144.914 82.1541 142.938 81.5676ZM151.097 82.2627C153.204 82.2627 154.746 80.677 154.746 78.6786C154.746 76.6585 153.182 75.0945 151.097 75.0945C148.99 75.0945 147.426 76.7019 147.426 78.6786C147.426 80.677 148.99 82.2627 151.097 82.2627ZM148.968 88.3013L150.272 89.0615L160.199 78.027L158.874 77.2884L148.968 88.3013ZM151.075 80.0688C150.294 80.0688 149.729 79.4606 149.729 78.6786C149.729 77.9184 150.294 77.3101 151.075 77.3101C151.879 77.3101 152.444 77.9184 152.444 78.6786C152.444 79.4389 151.879 80.0688 151.075 80.0688ZM158.439 90.8644C160.546 90.8644 162.088 89.257 162.088 87.2804C162.088 85.3037 160.546 83.6963 158.439 83.6963C156.332 83.6963 154.79 85.3037 154.79 87.2804C154.79 89.257 156.332 90.8644 158.439 90.8644ZM158.439 88.6705C157.635 88.6705 157.092 88.0623 157.092 87.2804C157.092 86.4984 157.635 85.8902 158.439 85.8902C159.243 85.8902 159.786 86.4984 159.786 87.2804C159.786 88.0189 159.243 88.6705 158.439 88.6705Z" fill="white"/>
<path d="M61.829 120.399V123.266H68.3238L63.3278 135.604H66.4992L71.6472 122.94V120.399H61.829ZM72.4777 120.399V123.266H78.9724L73.9765 135.604H77.1478L82.2959 122.94V120.399H72.4777ZM87.4924 127.263C89.5994 127.263 91.1416 125.677 91.1416 123.679C91.1416 121.659 89.5777 120.095 87.4924 120.095C85.3854 120.095 83.8215 121.702 83.8215 123.679C83.8215 125.677 85.3854 127.263 87.4924 127.263ZM85.3637 133.301L86.667 134.062L96.5937 123.027L95.2687 122.288L85.3637 133.301ZM87.4707 125.069C86.6887 125.069 86.1239 124.461 86.1239 123.679C86.1239 122.918 86.6887 122.31 87.4707 122.31C88.2744 122.31 88.8391 122.918 88.8391 123.679C88.8391 124.439 88.2744 125.069 87.4707 125.069ZM94.8343 135.864C96.9413 135.864 98.4835 134.257 98.4835 132.28C98.4835 130.304 96.9413 128.696 94.8343 128.696C92.7273 128.696 91.1851 130.304 91.1851 132.28C91.1851 134.257 92.7273 135.864 94.8343 135.864ZM94.8343 133.671C94.0306 133.671 93.4876 133.062 93.4876 132.28C93.4876 131.498 94.0306 130.89 94.8343 130.89C95.638 130.89 96.181 131.498 96.181 132.28C96.181 133.019 95.638 133.671 94.8343 133.671Z" fill="white"/>
</svg>
