<svg width="84" height="53" viewBox="0 0 84 53" fill="none" xmlns="http://www.w3.org/2000/svg">
<path d="M29.7642 39.9655V48.8781H0.401367V1.53816H29.405V10.4508H9.74001V20.5279H27.6989V29.3509H9.74001V39.9655H29.7642Z" fill="url(#paint0_linear_308_210)"/>
<path d="M78.2083 41.1747L83.1021 46.2357L76.4573 52.1028L71.2942 46.7731C67.7473 48.7438 63.7065 49.8186 59.3515 49.8186C45.7027 49.8186 34.7478 38.9802 34.7478 25.1857C34.7478 11.3018 45.7476 0.552856 59.3515 0.552856C73.0003 0.552856 84.045 11.3018 84.045 25.1857C84.0001 31.3664 81.845 36.92 78.2083 41.1747ZM64.6494 39.8311L56.8372 31.7247L63.4821 25.8576L71.8329 34.5015C73.5839 31.9934 74.6614 28.8135 74.6614 25.2305C74.6614 16.094 67.882 9.68942 59.3515 9.68942C50.821 9.68942 44.0415 16.094 44.0415 25.2305C44.0415 34.2775 50.821 40.7269 59.3515 40.7269C61.1923 40.7269 62.9882 40.3686 64.6494 39.8311Z" fill="url(#paint1_linear_308_210)"/>
<defs>
<linearGradient id="paint0_linear_308_210" x1="15.0872" y1="1.55003" x2="15.0872" y2="48.8901" gradientUnits="userSpaceOnUse">
<stop stop-color="#98C24C"/>
<stop offset="0.9849" stop-color="#ED842F"/>
</linearGradient>
<linearGradient id="paint1_linear_308_210" x1="59.3746" y1="0.603108" x2="59.3746" y2="52.1362" gradientUnits="userSpaceOnUse">
<stop stop-color="#98C24C"/>
<stop offset="0.9849" stop-color="#ED842F"/>
</linearGradient>
</defs>
</svg>
