<svg width="486" height="114" viewBox="0 0 486 114" fill="none" xmlns="http://www.w3.org/2000/svg">
<path d="M272.667 86.8811L279.129 77.5066C279.633 76.7533 280.64 76.5859 281.311 77.1718C283.493 78.8458 285.843 80.1013 288.445 80.9384C291.466 81.9428 294.319 82.445 296.921 82.445C299.522 82.445 301.369 82.0265 302.544 81.1895C303.719 80.3525 304.306 79.2643 304.306 78.0088C304.306 76.7533 303.719 75.7489 302.628 74.9119C301.537 74.0749 300.026 73.4053 298.18 72.8194C296.333 72.3172 294.319 71.7313 292.137 71.1454C289.955 70.5595 287.773 69.8062 285.591 68.8855C283.409 67.9648 281.395 66.8767 279.549 65.6212C277.702 64.3657 276.276 62.608 275.101 60.348C274.01 58.0881 273.422 55.4934 273.422 52.5639C273.422 46.8723 275.353 42.185 279.213 38.5859C283.073 34.9868 288.361 33.1454 294.991 33.1454C298.515 33.1454 302.376 33.7313 306.404 34.9031C310.013 35.9075 313.202 37.5815 316.055 39.9251C316.727 40.4273 316.811 41.348 316.307 42.0176L309.761 50.8899C309.258 51.5595 308.334 51.7269 307.663 51.3084C303.551 48.7974 299.438 47.4582 295.242 47.4582C292.892 47.4582 291.298 47.8767 290.375 48.63C289.452 49.467 289.032 50.3877 289.032 51.4758C289.032 52.6476 289.536 53.652 290.627 54.5727C291.718 55.4934 293.144 56.163 294.907 56.7489C296.753 57.3348 298.683 57.9207 300.865 58.674C303.047 59.3436 305.145 60.1806 307.327 61.1014C309.509 62.0221 311.523 63.1939 313.286 64.4494C315.132 65.7049 316.559 67.4626 317.734 69.7225C318.909 71.9824 319.412 74.4934 319.412 77.3392C319.412 83.0309 317.398 87.7181 313.286 91.3172C309.174 94.9163 303.467 96.674 295.998 96.674C290.878 96.674 286.43 95.9207 282.654 94.3304C279.297 92.9912 276.108 91.1498 273.087 88.9736C272.331 88.5551 272.247 87.5507 272.667 86.8811Z" fill="#F8F8F8"/>
<path d="M0.0836457 93.5771L37.2617 0.837004C37.4295 0.334802 37.9331 0 38.5205 0H53.9624C54.466 0 54.9695 0.334802 55.2213 0.837004L92.2315 93.5771C92.5672 94.4141 91.8958 95.4185 90.9726 95.4185H75.4468C74.8593 95.4185 74.4397 95.0837 74.188 94.5815L66.9705 76C66.8027 75.4978 66.2992 75.163 65.7117 75.163H26.4356C25.8481 75.163 25.4285 75.4978 25.1767 76L18.0432 94.5815C17.8754 95.0837 17.3719 95.4185 16.7844 95.4185H1.3425C0.419339 95.3348 -0.252048 94.4141 0.0836457 93.5771ZM33.4851 58.8414H58.7461C59.6692 58.8414 60.3406 57.9207 60.0049 57.0837L47.3325 24.2731C46.9129 23.1013 45.3183 23.1013 44.8148 24.2731L32.2263 57.0837C31.8906 57.9207 32.562 58.8414 33.4851 58.8414Z" fill="#F8F8F8"/>
<path d="M64.2854 111.824L104.988 64.1145C105.324 63.696 105.408 63.1101 105.156 62.6916L91.8962 36.2423C91.4766 35.3216 92.064 34.3172 93.0711 34.3172H107.254C107.758 34.3172 108.177 34.5683 108.429 35.0705L115.563 49.0484C115.982 49.8854 117.157 50.0528 117.745 49.2995L148.628 13.2246C148.88 12.8898 149.216 12.7224 149.635 12.7224L163.315 12.8061C164.406 12.8061 165.077 14.1454 164.322 14.9824L123.367 62.7753C123.032 63.1938 122.948 63.7797 123.2 64.1982L138.222 93.5771C138.641 94.4978 138.054 95.5022 137.047 95.5022H123.032C122.528 95.5022 122.109 95.2511 121.857 94.7489L113.045 77.674C112.625 76.837 111.45 76.6696 110.863 77.4229L79.8952 113.498C79.6434 113.833 79.3077 114 78.8881 114H65.2925C64.2015 114 63.614 112.661 64.2854 111.824Z" fill="url(#paint0_linear_651_3537)"/>
<path d="M149.132 65.37C149.132 61.0176 149.887 56.9163 151.398 52.9824C152.908 49.0485 155.006 45.6167 157.692 42.6872C160.378 39.7577 163.734 37.4141 167.763 35.6564C171.791 33.8987 176.155 33.0617 180.939 33.0617C186.813 33.0617 192.184 34.5683 196.884 37.4978C201.668 40.4273 205.277 44.3612 207.962 49.1322C210.564 53.9868 211.906 59.2599 211.906 65.0352C211.906 66.3744 211.823 67.7137 211.655 68.9692C211.571 69.6388 210.983 70.141 210.312 70.141H166.42C165.497 70.141 164.825 71.0617 165.161 71.8987C166.252 74.9119 168.015 77.4229 170.532 79.348C173.554 81.6079 177.246 82.7797 181.694 82.7797C184.631 82.7797 187.485 82.1938 190.17 81.1057C192.856 80.0176 195.038 78.2599 196.8 76L206.619 83.7841C207.207 84.2026 207.291 85.0396 206.871 85.6256C204.186 89.0573 200.745 91.8194 196.632 93.8282C192.017 96.0881 187.149 97.1762 181.862 97.1762C175.819 97.1762 170.281 95.7533 165.245 92.9912C160.21 90.2291 156.349 86.3789 153.412 81.5242C150.559 76.5859 149.132 71.2291 149.132 65.37ZM167.175 58.3392H194.115C195.038 58.3392 195.625 57.5022 195.374 56.6652C194.618 54.3216 193.108 52.2291 190.758 50.5551C187.904 48.4626 184.547 47.3744 180.687 47.3744C176.994 47.3744 173.805 48.3789 171.036 50.3877C168.854 51.978 167.091 53.9868 165.916 56.4141C165.581 57.3348 166.252 58.3392 167.175 58.3392Z" fill="#F8F8F8"/>
<path d="M218.62 87.3833L225.418 77.5903C225.838 76.9207 226.761 76.837 227.348 77.3392C229.614 79.0969 232.048 80.4361 234.65 81.2732C237.671 82.2776 240.524 82.7798 243.21 82.7798C245.811 82.7798 247.658 82.3613 248.833 81.4406C250.008 80.6036 250.595 79.5154 250.595 78.2599C250.595 77.0044 250.008 76 248.917 75.0793C247.742 74.2423 246.315 73.489 244.469 72.9868C242.622 72.4846 240.608 71.8987 238.426 71.3128C236.244 70.7269 234.062 69.9736 231.796 69.0529C229.53 68.1322 227.516 67.0441 225.67 65.7886C223.824 64.5331 222.397 62.7754 221.222 60.5154C220.047 58.2555 219.543 55.6608 219.543 52.6476C219.543 46.8723 221.474 42.185 225.418 38.5859C229.279 34.9031 234.65 33.1454 241.28 33.1454C244.888 33.1454 248.665 33.7313 252.777 34.9031C256.47 35.9075 259.743 37.6652 262.68 40.0925C263.184 40.511 263.268 41.348 262.848 41.8502L255.211 52.2291C250.679 49.1322 246.063 47.5419 241.447 47.5419C239.098 47.5419 237.503 47.9604 236.58 48.7974C235.657 49.6344 235.237 50.5551 235.237 51.6432C235.237 52.815 235.741 53.9031 236.832 54.7401C237.923 55.6608 239.349 56.4141 241.196 57C243.042 57.5859 245.056 58.1718 247.154 58.9251C249.336 59.5947 251.518 60.4317 253.7 61.4362C255.882 62.4406 257.896 63.5287 259.743 64.8679C261.589 66.1234 263.016 67.9648 264.191 70.141C265.366 72.3172 265.869 74.9119 265.869 77.8414C265.869 83.6168 263.771 88.304 259.659 91.9031C255.547 95.5022 249.756 97.2599 242.203 97.2599C237.083 97.2599 232.552 96.5066 228.775 94.9163C225.334 93.4934 222.061 91.652 218.956 89.3921C218.369 88.8062 218.201 87.9692 218.62 87.3833Z" fill="#F8F8F8"/>
<path d="M384.621 78.4273V95.0837H329.735V6.6123H383.949V23.2687H347.191V42.1013H380.76V58.5903H347.191V78.4273H384.621Z" fill="url(#paint1_linear_651_3537)"/>
<path d="M475.174 80.6872L484.322 90.1454L471.901 101.11L462.25 91.1498C455.62 94.8326 448.067 96.8414 439.926 96.8414C414.414 96.8414 393.936 76.5859 393.936 50.8062C393.936 24.859 414.498 4.7709 439.926 4.7709C465.439 4.7709 486.084 24.859 486.084 50.8062C486 62.3568 481.972 72.7357 475.174 80.6872ZM449.829 78.1762L435.227 63.0264L447.647 52.0617L463.257 68.2158C466.53 63.5286 468.544 57.5859 468.544 50.8899C468.544 33.815 455.872 21.8458 439.926 21.8458C423.981 21.8458 411.308 33.815 411.308 50.8899C411.308 67.7973 423.981 79.8502 439.926 79.8502C443.367 79.8502 446.724 79.1806 449.829 78.1762Z" fill="url(#paint2_linear_651_3537)"/>
<defs>
<linearGradient id="paint0_linear_651_3537" x1="63.994" y1="63.4093" x2="164.758" y2="63.4093" gradientUnits="userSpaceOnUse">
<stop offset="0.3712" stop-color="#98C24C"/>
<stop offset="0.5944" stop-color="#ED842F"/>
</linearGradient>
<linearGradient id="paint1_linear_651_3537" x1="357.186" y1="6.63449" x2="357.186" y2="95.106" gradientUnits="userSpaceOnUse">
<stop stop-color="#98C24C"/>
<stop offset="0.9849" stop-color="#ED842F"/>
</linearGradient>
<linearGradient id="paint2_linear_651_3537" x1="439.969" y1="4.86482" x2="439.969" y2="101.173" gradientUnits="userSpaceOnUse">
<stop stop-color="#98C24C"/>
<stop offset="0.9849" stop-color="#ED842F"/>
</linearGradient>
</defs>
</svg>
